<svg width="16" height="16" viewBox="0 0 16 16" fill="none" xmlns="http://www.w3.org/2000/svg">
<path d="M3.44 4.89001C4.24 4.89001 4.88 4.24001 4.88 3.45001C4.88 2.66001 4.23 2.01001 3.44 2.01001C2.65 2.01001 2 2.66001 2 3.45001C2 4.24001 2.65 4.89001 3.44 4.89001ZM6.25 5.98001V14H8.73V10.04C8.73 8.99001 8.93 7.98001 10.22 7.98001C11.51 7.98001 11.51 9.18001 11.51 10.1V14H14V9.60001C14 7.44001 13.54 5.78001 11.02 5.78001C9.81 5.78001 9 6.44001 8.67 7.07001H8.64V5.97001H6.26L6.25 5.98001ZM2.2 5.98001H4.69V14H2.2V5.98001Z" fill="#6F6F6F"/>
</svg>
