<svg width="30" height="30" viewBox="0 0 30 30" fill="none" xmlns="http://www.w3.org/2000/svg">
<path d="M25.4063 10.375V8.0625C25.4063 7.14253 25.0408 6.26024 24.3903 5.60972C23.7398 4.95921 22.8575 4.59375 21.9375 4.59375H18.4687M18.4687 25.4063H21.9375C22.8575 25.4063 23.7398 25.0408 24.3903 24.3903C25.0408 23.7398 25.4063 22.8575 25.4063 21.9375V19.625M4.59375 19.625V21.9375C4.59375 22.8575 4.95921 23.7398 5.60972 24.3903C6.26024 25.0408 7.14253 25.4063 8.0625 25.4063H11.5313M11.5313 4.59375H8.0625C7.14253 4.59375 6.26024 4.95921 5.60972 5.60972C4.95921 6.26024 4.59375 7.14253 4.59375 8.0625V10.375" stroke="#0A59DD" stroke-width="2" stroke-linecap="round" stroke-linejoin="round"/>
<path d="M15 10C16.3261 10 17.5979 10.5268 18.5355 11.4645C19.4732 12.4021 20 13.6739 20 15C20 16.3261 19.4732 17.5979 18.5355 18.5355C17.5979 19.4732 16.3261 20 15 20C13.6739 20 12.4021 19.4732 11.4645 18.5355C10.5268 17.5979 10 16.3261 10 15C10 13.6739 10.5268 12.4021 11.4645 11.4645C12.4021 10.5268 13.6739 10 15 10Z" stroke="#0A59DD" stroke-width="2"/>
</svg>
