<svg width="50" height="50" viewBox="0 0 50 50" fill="none" xmlns="http://www.w3.org/2000/svg">
<path d="M24.9941 44.5521C24.0663 44.5521 23.2746 44.2222 22.6191 43.5625C21.9635 42.9042 21.6358 42.1125 21.6358 41.1875H28.3649C28.3649 42.1181 28.0351 42.9118 27.3753 43.5687C26.7142 44.2243 25.9205 44.5521 24.9941 44.5521ZM11.4587 39.1021C11.1628 39.1021 10.9156 39.0021 10.717 38.8021C10.5184 38.6021 10.4184 38.3542 10.417 38.0583C10.4156 37.7625 10.5156 37.5153 10.717 37.3167C10.9184 37.1181 11.1656 37.0187 11.4587 37.0187H13.7837V20.5125C13.7837 17.7903 14.6448 15.3965 16.367 13.3313C18.0892 11.266 20.2726 9.97917 22.917 9.47083V8.33333C22.917 7.75417 23.1191 7.2625 23.5233 6.85833C23.9274 6.45278 24.4184 6.25 24.9962 6.25C25.5739 6.25 26.0663 6.45278 26.4733 6.85833C26.8802 7.26389 27.0837 7.75556 27.0837 8.33333V8.48958C26.7823 8.96042 26.5184 9.43472 26.292 9.9125C26.0656 10.3903 25.8885 10.8986 25.7608 11.4375L25.3899 11.3958C25.2691 11.3847 25.1392 11.3792 25.0003 11.3792C22.4684 11.3792 20.3128 12.2681 18.5337 14.0458C16.7545 15.8236 15.8656 17.9792 15.867 20.5125V37.0187H34.1358V24.3562C34.4663 24.4187 34.8073 24.4681 35.1587 24.5042C35.5101 24.5403 35.8628 24.5451 36.217 24.5187V37.0187H38.542C38.8378 37.0187 39.0851 37.1187 39.2837 37.3187C39.4837 37.5187 39.5837 37.7667 39.5837 38.0625C39.5837 38.3583 39.4837 38.6056 39.2837 38.8042C39.0837 39.0028 38.8364 39.1021 38.542 39.1021H11.4587ZM35.342 19.5917C33.8962 19.5917 32.6656 19.0854 31.6503 18.0729C30.6351 17.0604 30.1281 15.8319 30.1295 14.3875C30.1309 12.9431 30.6364 11.7125 31.6462 10.6958C32.6559 9.67917 33.8851 9.17222 35.3337 9.175C36.7823 9.17778 38.0114 9.68333 39.0212 10.6917C40.0309 11.7 40.5392 12.9292 40.5462 14.3792C40.5531 15.8292 40.0469 17.059 39.0274 18.0688C38.008 19.0785 36.7788 19.5854 35.3399 19.5896" fill="#1F1F1F"/>
</svg>
