<svg width="50" height="50" viewBox="0 0 50 50" fill="none" xmlns="http://www.w3.org/2000/svg">
<path d="M42.7913 20.8001V29.3896C42.8069 29.6605 42.7455 29.9302 42.6142 30.1676C42.483 30.405 42.2872 30.6004 42.0496 30.7313L27.1955 39.1146C26.5417 39.4832 25.8041 39.6773 25.0536 39.6784C24.3031 39.6795 23.5649 39.4875 22.91 39.1209L7.95796 30.7334C7.71566 30.6 7.517 30.3995 7.38581 30.1559C7.25463 29.9124 7.19649 29.6362 7.21837 29.3605V20.8292C7.19697 20.5577 7.25317 20.2856 7.38042 20.0448C7.50767 19.8039 7.70073 19.6042 7.93712 19.4688L22.8455 10.7771C23.5153 10.3875 24.2766 10.1827 25.0515 10.1838C25.8264 10.1849 26.5871 10.3918 27.2559 10.7834L42.0725 19.4709C42.3035 19.6042 42.4929 19.7991 42.6195 20.0338C42.746 20.2685 42.8048 20.5338 42.7892 20.8001H42.7913Z" stroke="#1F1F1F" stroke-width="1.6"/>
<path d="M7.95764 21.9959C7.73408 21.8702 7.54765 21.6878 7.41723 21.467C7.28681 21.2462 7.21701 20.9948 7.21489 20.7384C7.21278 20.4819 7.27842 20.2295 7.40519 20.0066C7.53196 19.7836 7.71535 19.5981 7.93681 19.4688L22.8472 10.7771C23.5168 10.3879 24.2777 10.1834 25.0522 10.1845C25.8267 10.1856 26.5871 10.3922 27.2556 10.7834L42.0722 19.4709C42.2932 19.6003 42.4761 19.7858 42.6026 20.0085C42.729 20.2312 42.7944 20.4833 42.7923 20.7394C42.7902 20.9955 42.7206 21.2465 42.5905 21.4671C42.4604 21.6877 42.2745 21.8701 42.0514 21.9959L27.1931 30.3771C26.5395 30.7453 25.8023 30.9392 25.0522 30.9403C24.3021 30.9414 23.5643 30.7496 22.9097 30.3834L7.95764 21.9959Z" stroke="#1F1F1F" stroke-width="1.6"/>
</svg>
