<svg width="30" height="30" viewBox="0 0 30 30" fill="none" xmlns="http://www.w3.org/2000/svg">
<path d="M28.4977 7.2328C28.3965 7.16968 28.2809 7.13333 28.1618 7.12718C28.0427 7.12103 27.924 7.14528 27.8168 7.19764C22.7004 9.69608 19.0641 8.53241 15.2145 7.30077C11.2688 6.03866 7.18945 4.73436 1.5668 7.48124C1.44842 7.53897 1.34864 7.62879 1.27881 7.74046C1.20899 7.85213 1.17194 7.98117 1.17188 8.11288V22.1754C1.17193 22.2946 1.20231 22.4119 1.26015 22.5161C1.31799 22.6204 1.4014 22.7082 1.50253 22.7714C1.60366 22.8346 1.71919 22.871 1.83826 22.8772C1.95733 22.8834 2.07603 22.8593 2.1832 22.807C7.29961 20.3086 10.9359 21.4723 14.7855 22.7039C17.0121 23.4176 19.2926 24.1453 21.866 24.1453C23.8406 24.1453 25.9922 23.7164 28.4285 22.5234C28.5469 22.4657 28.6467 22.3759 28.7165 22.2642C28.7863 22.1525 28.8234 22.0235 28.8234 21.8918V7.82928C28.824 7.71043 28.7944 7.59338 28.7374 7.48906C28.6804 7.38475 28.5979 7.29659 28.4977 7.2328ZM27.4219 21.4453C22.5117 23.6965 18.9645 22.5621 15.2145 21.3621C12.982 20.6461 10.7074 19.9219 8.13398 19.9219C6.43594 19.9219 4.60898 20.2383 2.57812 21.0844V8.55467C7.48828 6.3035 11.0355 7.43788 14.7855 8.63788C18.4898 9.82499 22.3137 11.0484 27.4219 8.91913V21.4453ZM15 11.4844C14.3047 11.4844 13.625 11.6905 13.0468 12.0769C12.4687 12.4632 12.0181 13.0122 11.752 13.6546C11.4859 14.297 11.4163 15.0039 11.5519 15.6859C11.6876 16.3678 12.0224 16.9942 12.5141 17.4859C13.0057 17.9776 13.6322 18.3124 14.3141 18.4481C14.9961 18.5837 15.703 18.5141 16.3454 18.248C16.9878 17.9819 17.5368 17.5313 17.9231 16.9532C18.3094 16.375 18.5156 15.6953 18.5156 15C18.5156 14.0676 18.1452 13.1734 17.4859 12.5141C16.8266 11.8548 15.9324 11.4844 15 11.4844ZM15 17.1094C14.5828 17.1094 14.175 16.9857 13.8281 16.7539C13.4812 16.5221 13.2108 16.1926 13.0512 15.8072C12.8915 15.4218 12.8498 14.9976 12.9312 14.5885C13.0125 14.1793 13.2134 13.8034 13.5084 13.5084C13.8034 13.2134 14.1793 13.0125 14.5885 12.9311C14.9977 12.8498 15.4218 12.8915 15.8072 13.0512C16.1927 13.2108 16.5221 13.4812 16.7539 13.8281C16.9857 14.175 17.1094 14.5828 17.1094 15C17.1094 15.5594 16.8871 16.096 16.4916 16.4915C16.096 16.8871 15.5594 17.1094 15 17.1094ZM6.32812 11.25V16.875C6.32812 17.0615 6.25405 17.2403 6.12218 17.3722C5.99032 17.504 5.81148 17.5781 5.625 17.5781C5.43852 17.5781 5.25968 17.504 5.12782 17.3722C4.99595 17.2403 4.92187 17.0615 4.92187 16.875V11.25C4.92187 11.0635 4.99595 10.8847 5.12782 10.7528C5.25968 10.6209 5.43852 10.5469 5.625 10.5469C5.81148 10.5469 5.99032 10.6209 6.12218 10.7528C6.25405 10.8847 6.32812 11.0635 6.32812 11.25ZM23.6719 18.75V13.125C23.6719 12.9385 23.746 12.7597 23.8778 12.6278C24.0097 12.4959 24.1885 12.4219 24.375 12.4219C24.5615 12.4219 24.7403 12.4959 24.8722 12.6278C25.004 12.7597 25.0781 12.9385 25.0781 13.125V18.75C25.0781 18.9365 25.004 19.1153 24.8722 19.2472C24.7403 19.379 24.5615 19.4531 24.375 19.4531C24.1885 19.4531 24.0097 19.379 23.8778 19.2472C23.746 19.1153 23.6719 18.9365 23.6719 18.75Z" fill="#F8FBFF" stroke="#F8FBFF" stroke-width="0.3"/>
</svg>
