<svg width="27" height="20" viewBox="0 0 27 20" fill="none" xmlns="http://www.w3.org/2000/svg">
<g clip-path="url(#clip0_6_835)">
<path d="M8.08673 16.5535L7.39551 15.315L15.4484 0.5L16.9207 0.531117L8.08673 16.5535Z" fill="#FB3B33"/>
<path d="M11.1208 19.4194L9.64844 19.3883L18.5444 3.4873L19.2047 4.75378L11.1208 19.4194Z" fill="#FB3B33"/>
<path d="M18.7118 4.63261L16.6567 1.88183C16.4273 1.57377 16.0585 1.40884 15.6772 1.43063C15.296 1.45552 14.9519 1.67645 14.7659 2.01252L7.91571 14.391C7.73593 14.7178 7.72663 15.113 7.89401 15.449L9.26405 18.1998C9.44693 18.567 9.81579 18.8097 10.2249 18.8253C10.2404 18.8253 10.2559 18.8253 10.2745 18.8253C10.6682 18.8253 11.034 18.6199 11.2385 18.2838L18.7738 5.90531C19.0155 5.51012 18.9908 5.00602 18.7118 4.63261Z" fill="#FB3B33"/>
<path d="M11.1215 19.4194H7.30277C5.97922 19.4194 4.77966 18.6944 4.14733 17.5492L0 10.0935L5.17021 0.5H11.1215L5.89243 10.0344L11.1215 19.4194ZM1.47233 10.0935L5.2601 16.9424C5.68166 17.6955 6.46277 18.1498 7.30277 18.1498H8.92699L4.417 10.0655L8.92699 1.82871H5.95133L1.47233 10.0935Z" fill="#1F1F1F"/>
<path d="M21.3686 19.4194H15.4482L20.6773 10.0064L15.4482 0.5H19.4468C20.6495 0.5 21.7622 1.1628 22.3326 2.22079L26.5698 10.0966L21.3686 19.4194ZM17.6428 18.1218H20.6185L25.0974 10.0655L21.1888 2.82447C20.8292 2.18968 20.1659 1.76959 19.4468 1.76959H17.6428L22.1497 10.0064L17.6428 18.1218Z" fill="#1F1F1F"/>
</g>
<defs>
<clipPath id="clip0_6_835">
<rect width="26.5702" height="18.9194" fill="white" transform="translate(0 0.5)"/>
</clipPath>
</defs>
</svg>
